<svg xmlns="http://www.w3.org/2000/svg" xml:space="preserve" viewBox="0 0 63.002 63.002"><path d="M43.866 61.501H19.137c-5.448 0-10.184-3.445-11.786-8.571L.572 31.386c-1.175-3.76-.52-7.72 1.793-10.867 2.345-3.189 5.986-5.018 9.992-5.018h38.289c3.994 0 7.631 1.831 9.978 5.022 2.326 3.164 2.984 7.139 1.807 10.907l-6.78 21.554c-1.593 5.093-6.329 8.517-11.785 8.517m-31.509-43c-3.041 0-5.802 1.383-7.575 3.795-1.742 2.37-2.233 5.356-1.348 8.192l6.78 21.544c1.21 3.87 4.795 6.469 8.923 6.469h24.729c4.138 0 7.723-2.578 8.923-6.416l6.78-21.553c.889-2.844.393-5.845-1.362-8.231-1.776-2.415-4.531-3.8-7.561-3.8z"/><path d="M47.056 18.001a1.5 1.5 0 0 1-1.5-1.5v-5.5c0-3.584-3.342-6.5-6.926-6.5h-15c-3.584 0-6.074 2.916-6.074 6.5v5.5a1.5 1.5 0 1 1-3 0v-5.5c0-5.238 3.835-9.5 9.074-9.5h15c5.238 0 9.926 4.262 9.926 9.5v5.5a1.5 1.5 0 0 1-1.5 1.5"/></svg>